<?xml version="1.0" encoding="UTF-8" standalone="no"?>
<!-- Created with Inkscape (http://www.inkscape.org/) -->

<svg
   width="128mm"
   height="32mm"
   viewBox="0 0 128 32"
   version="1.1"
   id="svg1"
   xml:space="preserve"
   inkscape:version="1.3.2 (091e20e, 2023-11-25)"
   sodipodi:docname="Auth Token Intro.svg"
   inkscape:export-filename="Auth Token Intro.png"
   inkscape:export-xdpi="50.799999"
   inkscape:export-ydpi="50.799999"
   xmlns:inkscape="http://www.inkscape.org/namespaces/inkscape"
   xmlns:sodipodi="http://sodipodi.sourceforge.net/DTD/sodipodi-0.dtd"
   xmlns:xlink="http://www.w3.org/1999/xlink"
   xmlns="http://www.w3.org/2000/svg"
   xmlns:svg="http://www.w3.org/2000/svg"><sodipodi:namedview
     id="namedview1"
     pagecolor="#000000"
     bordercolor="#000000"
     borderopacity="0.25"
     inkscape:showpageshadow="2"
     inkscape:pageopacity="0.0"
     inkscape:pagecheckerboard="0"
     inkscape:deskcolor="#d1d1d1"
     inkscape:document-units="mm"
     inkscape:zoom="3.1895021"
     inkscape:cx="276.21866"
     inkscape:cy="37.780191"
     inkscape:window-width="2800"
     inkscape:window-height="1212"
     inkscape:window-x="0"
     inkscape:window-y="25"
     inkscape:window-maximized="0"
     inkscape:current-layer="layer1"
     inkscape:export-bgcolor="#000000ff" /><defs
     id="defs1"><color-profile
       name="Black-White"
       xlink:href="file:///Library/ColorSync/Profiles/Black%20&amp;%20White.icc"
       id="color-profile2" /></defs><g
     inkscape:label="Layer 1"
     inkscape:groupmode="layer"
     id="layer1"><text
       xml:space="preserve"
       style="font-weight:bold;font-size:17.6389px;line-height:0;font-family:Play;-inkscape-font-specification:'Play Bold';fill:#ffffff;fill-opacity:1;fill-rule:nonzero;stroke-width:0.264583"
       x="34.260178"
       y="21.651106"
       id="text1"><tspan
         sodipodi:role="line"
         id="tspan1"
         style="font-style:normal;font-variant:normal;font-weight:normal;font-stretch:normal;font-size:17.6389px;font-family:Prototype;-inkscape-font-specification:Prototype;stroke-width:0.264583"
         x="34.260178"
         y="21.651106">Auth Token</tspan></text><path
       d="m 10.275931,20.150552 v -1.666668 h 18.181815 v 1.666668 z m 1.045457,-5.041666 -1.181821,-0.625002 0.772727,-1.249999 H 9.3668387 v -1.25 h 1.5454553 l -0.772727,-1.208334 1.181821,-0.624999 0.772724,1.208334 0.772728,-1.208334 1.18182,0.624999 -0.772728,1.208334 h 1.545453 v 1.25 h -1.545453 l 0.772728,1.249999 -1.18182,0.625002 -0.772728,-1.25 z m 7.272724,0 -1.181817,-0.625002 0.772727,-1.249999 h -1.545455 v -1.25 h 1.545455 l -0.772727,-1.208334 1.181817,-0.624999 0.772727,1.208334 0.772728,-1.208334 1.181817,0.624999 -0.772728,1.208334 h 1.545456 v 1.25 h -1.545456 l 0.772728,1.249999 -1.181817,0.625002 -0.772728,-1.25 z m 7.272727,0 -1.181817,-0.625002 0.772724,-1.249999 h -1.545452 v -1.25 h 1.545452 l -0.772724,-1.208334 1.181817,-0.624999 0.772727,1.208334 0.772728,-1.208334 1.181817,0.624999 -0.772728,1.208334 h 1.545456 v 1.25 h -1.545456 l 0.772728,1.249999 -1.181817,0.625002 -0.772728,-1.25 z"
       id="path1"
       style="fill:#ffffff;stroke-width:0.0217597" /></g></svg>
