<?xml version="1.0" encoding="UTF-8" standalone="no"?>
<!-- Created with Inkscape (http://www.inkscape.org/) -->

<svg
   width="128mm"
   height="32mm"
   viewBox="0 0 128 32"
   version="1.1"
   id="svg1"
   xml:space="preserve"
   inkscape:version="1.3.2 (091e20e, 2023-11-25)"
   sodipodi:docname="Error Intro.svg"
   inkscape:export-filename="Error Intro.png"
   inkscape:export-xdpi="50.799999"
   inkscape:export-ydpi="50.799999"
   xmlns:inkscape="http://www.inkscape.org/namespaces/inkscape"
   xmlns:sodipodi="http://sodipodi.sourceforge.net/DTD/sodipodi-0.dtd"
   xmlns:xlink="http://www.w3.org/1999/xlink"
   xmlns="http://www.w3.org/2000/svg"
   xmlns:svg="http://www.w3.org/2000/svg"><sodipodi:namedview
     id="namedview1"
     pagecolor="#000000"
     bordercolor="#000000"
     borderopacity="0.25"
     inkscape:showpageshadow="2"
     inkscape:pageopacity="0.0"
     inkscape:pagecheckerboard="0"
     inkscape:deskcolor="#d1d1d1"
     inkscape:document-units="mm"
     inkscape:zoom="3.1895021"
     inkscape:cx="276.21866"
     inkscape:cy="37.780191"
     inkscape:window-width="2800"
     inkscape:window-height="1212"
     inkscape:window-x="0"
     inkscape:window-y="25"
     inkscape:window-maximized="0"
     inkscape:current-layer="layer1"
     inkscape:export-bgcolor="#000000ff" /><defs
     id="defs1"><color-profile
       name="Black-White"
       xlink:href="file:///Library/ColorSync/Profiles/Black%20&amp;%20White.icc"
       id="color-profile2" /></defs><g
     inkscape:label="Layer 1"
     inkscape:groupmode="layer"
     id="layer1"><path
       d="m 20.567885,20.529369 q 0.313224,0 0.515131,-0.201448 0.201926,-0.201473 0.201926,-0.514685 0,-0.313212 -0.201449,-0.515133 -0.201449,-0.201921 -0.514654,-0.201921 -0.313204,0 -0.515131,0.201473 -0.201926,0.201447 -0.201926,0.51466 0,0.313212 0.201449,0.515133 0.201449,0.201921 0.514654,0.201921 z m -0.537968,-3.712537 h 1.194294 v -6.566805 h -1.194294 z m 0.547218,8.732787 q -2.077771,0 -3.892049,-0.787369 -1.814258,-0.787371 -3.177775,-2.150271 -1.363518,-1.362923 -2.151234,-3.17835 -0.787715,-1.815425 -0.787715,-3.895404 0,-2.069874 0.787377,-3.89117 0.787357,-1.8212924 2.150259,-3.1716374 1.362921,-1.350373 3.178352,-2.138085 1.815431,-0.787713 3.89541,-0.787713 2.069874,0 3.891173,0.787371 1.82128,0.787369 3.171629,2.13711 1.350369,1.349766 2.138085,3.1744544 0.787715,1.824664 0.787715,3.892301 0,2.077769 -0.787377,3.892037 -0.787357,1.814268 -2.13711,3.17293 -1.349752,1.35866 -3.174453,2.151215 -1.824662,0.792581 -3.892287,0.792581 z"
       id="path1"
       style="fill:#ffffff;fill-opacity:1;fill-rule:nonzero;stroke-width:0.026316"
       inkscape:label="Icon" /><text
       xml:space="preserve"
       style="font-weight:bold;font-size:17.6389px;line-height:0;font-family:Play;-inkscape-font-specification:'Play Bold';fill:#ffffff;fill-opacity:1;fill-rule:nonzero;stroke-width:0.264583"
       x="50.35334"
       y="22.231787"
       id="text1"><tspan
         sodipodi:role="line"
         id="tspan1"
         style="font-style:normal;font-variant:normal;font-weight:normal;font-stretch:normal;font-size:17.6389px;font-family:Prototype;-inkscape-font-specification:Prototype;stroke-width:0.264583"
         x="50.35334"
         y="22.231787">Error</tspan></text></g></svg>
