<?xml version="1.0" encoding="UTF-8" standalone="no"?>
<!-- Created with Inkscape (http://www.inkscape.org/) -->

<svg
   width="128mm"
   height="32mm"
   viewBox="0 0 128 32"
   version="1.1"
   id="svg1"
   xml:space="preserve"
   inkscape:version="1.3.2 (091e20e, 2023-11-25)"
   sodipodi:docname="Ethernet.svg"
   inkscape:export-filename="Ethernet.png"
   inkscape:export-xdpi="50.799999"
   inkscape:export-ydpi="50.799999"
   xmlns:inkscape="http://www.inkscape.org/namespaces/inkscape"
   xmlns:sodipodi="http://sodipodi.sourceforge.net/DTD/sodipodi-0.dtd"
   xmlns:xlink="http://www.w3.org/1999/xlink"
   xmlns="http://www.w3.org/2000/svg"
   xmlns:svg="http://www.w3.org/2000/svg"><sodipodi:namedview
     id="namedview1"
     pagecolor="#000000"
     bordercolor="#000000"
     borderopacity="0.25"
     inkscape:showpageshadow="2"
     inkscape:pageopacity="0.0"
     inkscape:pagecheckerboard="0"
     inkscape:deskcolor="#d1d1d1"
     inkscape:document-units="mm"
     inkscape:zoom="3.1895021"
     inkscape:cx="207.24238"
     inkscape:cy="18.968478"
     inkscape:window-width="2800"
     inkscape:window-height="1212"
     inkscape:window-x="1"
     inkscape:window-y="25"
     inkscape:window-maximized="0"
     inkscape:current-layer="layer1"
     inkscape:export-bgcolor="#000000ff" /><defs
     id="defs1"><color-profile
       name="Black-White"
       xlink:href="file:///Library/ColorSync/Profiles/Black%20&amp;%20White.icc"
       id="color-profile2" /></defs><g
     inkscape:label="Layer 1"
     inkscape:groupmode="layer"
     id="layer1"><text
       xml:space="preserve"
       style="font-size:9.17222px;line-height:0;font-family:Prototype;-inkscape-font-specification:Prototype;fill:#000000;stroke:#000000;stroke-width:0.264583;stroke-opacity:0"
       x="29.70504"
       y="7.2170358"
       id="text1"><tspan
         sodipodi:role="line"
         id="tspan1"
         style="font-style:normal;font-variant:normal;font-weight:normal;font-stretch:normal;font-size:9.17222px;font-family:Monospace;-inkscape-font-specification:Monospace;fill:#ffffff;fill-opacity:1;stroke-width:0.264583"
         x="29.70504"
         y="7.2170358">Connected</tspan></text><text
       xml:space="preserve"
       style="font-size:9.17222px;line-height:0;font-family:Prototype;-inkscape-font-specification:Prototype;fill:#000000;stroke:#000000;stroke-width:0.264583;stroke-opacity:0"
       x="29.497625"
       y="14.382352"
       id="text1-6"><tspan
         sodipodi:role="line"
         id="tspan1-0"
         style="font-style:normal;font-variant:normal;font-weight:normal;font-stretch:normal;font-size:9.17222px;font-family:Monospace;-inkscape-font-specification:Monospace;fill:#ffffff;fill-opacity:1;stroke-width:0.264583"
         x="29.497625"
         y="14.382352">192.168.101.1</tspan></text><text
       xml:space="preserve"
       style="font-size:9.17222px;line-height:0;font-family:Prototype;-inkscape-font-specification:Prototype;fill:#000000;stroke:#000000;stroke-width:0.264583;stroke-opacity:0"
       x="29.70504"
       y="21.651861"
       id="text1-62"><tspan
         sodipodi:role="line"
         id="tspan1-8"
         style="font-style:normal;font-variant:normal;font-weight:normal;font-stretch:normal;font-size:9.17222px;font-family:Monospace;-inkscape-font-specification:Monospace;fill:#ffffff;fill-opacity:1;stroke-width:0.264583"
         x="29.70504"
         y="21.651861">DE:AD:BE:EF:FE:ED</tspan></text><text
       xml:space="preserve"
       style="font-size:9.17222px;line-height:0;font-family:Prototype;-inkscape-font-specification:Prototype;fill:#000000;stroke:#000000;stroke-width:0.264583;stroke-opacity:0"
       x="29.70504"
       y="29.118723"
       id="text1-3"><tspan
         sodipodi:role="line"
         id="tspan1-9"
         style="font-style:normal;font-variant:normal;font-weight:normal;font-stretch:normal;font-size:9.17222px;font-family:Monospace;-inkscape-font-specification:Monospace;fill:#ffffff;fill-opacity:1;stroke-width:0.264583"
         x="29.70504"
         y="29.118723">100MB FDX</tspan></text><rect
       style="fill:#ffffff;fill-opacity:1;stroke:#000000;stroke-width:0.264002;stroke-opacity:0"
       id="rect1"
       width="3.7359972"
       height="29.735998"
       x="123.4359"
       y="1.2440263" /><rect
       style="fill:#000000;fill-opacity:1;stroke:#000000;stroke-width:0.272199;stroke-opacity:0"
       id="rect2"
       width="3.7278011"
       height="3.7278013"
       x="123.44001"
       y="7.7185698" /><path
       d="m 19.844534,20.488279 -0.776098,-0.707463 4.679097,-4.292536 -4.679097,-4.292538 0.776098,-0.707463 5.485077,5.000001 z m -9.029846,0 -5.4850771,-4.999999 5.4850771,-5.000001 0.776098,0.707463 -4.679097,4.292538 4.679097,4.292536 z M 11.44638,16.18555 q -0.308945,0 -0.535622,-0.207227 -0.226677,-0.207227 -0.226677,-0.48885 0,-0.281623 0.227331,-0.494288 0.227332,-0.212689 0.536277,-0.212689 0.308945,0 0.542242,0.213285 0.233322,0.213262 0.233322,0.494885 0,0.281624 -0.233977,0.488254 -0.233951,0.20663 -0.542896,0.20663 z m 3.880611,0 q -0.308945,0 -0.535622,-0.207227 -0.226674,-0.207227 -0.226674,-0.48885 0,-0.281623 0.227331,-0.494288 0.227331,-0.212689 0.536276,-0.212689 0.308945,0 0.542242,0.213285 0.233323,0.213262 0.233323,0.494885 0,0.281624 -0.233978,0.488254 -0.233953,0.20663 -0.542898,0.20663 z m 3.880613,0 q -0.308945,0 -0.535621,-0.207227 -0.226677,-0.207227 -0.226677,-0.48885 0,-0.281623 0.227331,-0.494288 0.227331,-0.212689 0.536276,-0.212689 0.308946,0 0.542244,0.213285 0.233321,0.213262 0.233321,0.494885 0,0.281624 -0.233975,0.488254 -0.233954,0.20663 -0.542899,0.20663 z"
       id="path1"
       style="fill:#ffffff;fill-opacity:1;stroke-width:0.0231567" /></g></svg>
