<?xml version="1.0" encoding="UTF-8" standalone="no"?>
<!-- Created with Inkscape (http://www.inkscape.org/) -->

<svg
   width="128mm"
   height="32mm"
   viewBox="0 0 128 32"
   version="1.1"
   id="svg1"
   xml:space="preserve"
   inkscape:version="1.3.2 (091e20e, 2023-11-25)"
   sodipodi:docname="Hardware Intro.svg"
   inkscape:export-filename="Hardware Intro.png"
   inkscape:export-xdpi="50.799999"
   inkscape:export-ydpi="50.799999"
   xmlns:inkscape="http://www.inkscape.org/namespaces/inkscape"
   xmlns:sodipodi="http://sodipodi.sourceforge.net/DTD/sodipodi-0.dtd"
   xmlns:xlink="http://www.w3.org/1999/xlink"
   xmlns="http://www.w3.org/2000/svg"
   xmlns:svg="http://www.w3.org/2000/svg"><sodipodi:namedview
     id="namedview1"
     pagecolor="#000000"
     bordercolor="#000000"
     borderopacity="0.25"
     inkscape:showpageshadow="2"
     inkscape:pageopacity="0.0"
     inkscape:pagecheckerboard="0"
     inkscape:deskcolor="#d1d1d1"
     inkscape:document-units="mm"
     inkscape:zoom="3.1895021"
     inkscape:cx="276.21866"
     inkscape:cy="-6.740864"
     inkscape:window-width="2800"
     inkscape:window-height="1212"
     inkscape:window-x="0"
     inkscape:window-y="25"
     inkscape:window-maximized="0"
     inkscape:current-layer="layer1"
     inkscape:export-bgcolor="#000000ff" /><defs
     id="defs1"><color-profile
       name="Black-White"
       xlink:href="file:///Library/ColorSync/Profiles/Black%20&amp;%20White.icc"
       id="color-profile2" /></defs><g
     inkscape:label="Layer 1"
     inkscape:groupmode="layer"
     id="layer1"><text
       xml:space="preserve"
       style="font-weight:bold;font-size:17.6389px;line-height:0;font-family:Play;-inkscape-font-specification:'Play Bold';fill:#ffffff;fill-opacity:1;fill-rule:nonzero;stroke-width:0.264583"
       x="43.385166"
       y="21.568151"
       id="text1"><tspan
         sodipodi:role="line"
         id="tspan1"
         style="font-style:normal;font-variant:normal;font-weight:normal;font-stretch:normal;font-size:17.6389px;font-family:Prototype;-inkscape-font-specification:Prototype;stroke-width:0.264583"
         x="43.385166"
         y="21.568151">Hardware</tspan></text><path
       d="m 16.515526,9.1941372 q -0.524355,0 -0.888621,0.359258 -0.364236,0.35923 -0.364236,0.8724398 0,0.513209 0.36706,0.869703 0.367031,0.356525 0.891384,0.356525 0.524356,0 0.888592,-0.359258 0.364265,-0.35923 0.364265,-0.87244 0,-0.5132078 -0.36706,-0.8697338 -0.367031,-0.356494 -0.891384,-0.356494 z m 0,11.0983158 q -0.524355,0 -0.888621,0.359258 -0.364236,0.359228 -0.364236,0.872438 0,0.513211 0.36706,0.869734 0.367031,0.356494 0.891384,0.356494 0.524356,0 0.888592,-0.359258 0.364265,-0.35923 0.364265,-0.872438 0,-0.513211 -0.36706,-0.869705 -0.367031,-0.356523 -0.891384,-0.356523 z M 13.002485,5.9811093 h 18.164938 q 0.410853,0 0.668207,0.2511069 0.257353,0.251077 0.257353,0.674097 v 6.8626378 q 0,0.490554 -0.257353,0.802199 -0.257354,0.311645 -0.668207,0.311645 H 13.002485 q -0.394795,0 -0.652149,-0.311645 -0.257353,-0.311645 -0.257353,-0.802199 V 6.9063132 q 0,-0.42302 0.257353,-0.674097 0.257354,-0.2511069 0.652149,-0.2511069 z m 0,11.0806097 h 18.045231 q 0.418559,0 0.731914,0.331192 0.313353,0.33119 0.313353,0.75021 v 6.71309 q 0,0.542515 -0.313353,0.833721 -0.313355,0.291177 -0.731914,0.291177 H 13.13825 q -0.447971,0 -0.746619,-0.291177 -0.298648,-0.291206 -0.298648,-0.833721 v -6.71309 q 0,-0.41902 0.245501,-0.75021 0.24547,-0.331192 0.664001,-0.331192 z"
       id="path1"
       style="fill:#ffffff;fill-opacity:1;stroke-width:0.0290976" /></g></svg>
