<?xml version="1.0" encoding="UTF-8" standalone="no"?>
<!-- Created with Inkscape (http://www.inkscape.org/) -->

<svg
   width="128mm"
   height="32mm"
   viewBox="0 0 128 32"
   version="1.1"
   id="svg1"
   xml:space="preserve"
   inkscape:version="1.3.2 (091e20e, 2023-11-25)"
   sodipodi:docname="Software Intro.svg"
   inkscape:export-filename="Software Intro.png"
   inkscape:export-xdpi="50.799999"
   inkscape:export-ydpi="50.799999"
   xmlns:inkscape="http://www.inkscape.org/namespaces/inkscape"
   xmlns:sodipodi="http://sodipodi.sourceforge.net/DTD/sodipodi-0.dtd"
   xmlns:xlink="http://www.w3.org/1999/xlink"
   xmlns="http://www.w3.org/2000/svg"
   xmlns:svg="http://www.w3.org/2000/svg"><sodipodi:namedview
     id="namedview1"
     pagecolor="#000000"
     bordercolor="#000000"
     borderopacity="0.25"
     inkscape:showpageshadow="2"
     inkscape:pageopacity="0.0"
     inkscape:pagecheckerboard="0"
     inkscape:deskcolor="#d1d1d1"
     inkscape:document-units="mm"
     inkscape:zoom="3.1895021"
     inkscape:cx="276.21866"
     inkscape:cy="35.89902"
     inkscape:window-width="2800"
     inkscape:window-height="1212"
     inkscape:window-x="0"
     inkscape:window-y="25"
     inkscape:window-maximized="0"
     inkscape:current-layer="layer1"
     inkscape:export-bgcolor="#000000ff" /><defs
     id="defs1"><color-profile
       name="Black-White"
       xlink:href="file:///Library/ColorSync/Profiles/Black%20&amp;%20White.icc"
       id="color-profile2" /></defs><g
     inkscape:label="Layer 1"
     inkscape:groupmode="layer"
     id="layer1"><text
       xml:space="preserve"
       style="font-weight:bold;font-size:17.6389px;line-height:0;font-family:Play;-inkscape-font-specification:'Play Bold';fill:#ffffff;fill-opacity:1;fill-rule:nonzero;stroke-width:0.264583"
       x="43.385166"
       y="21.568151"
       id="text1"><tspan
         sodipodi:role="line"
         id="tspan1"
         style="font-style:normal;font-variant:normal;font-weight:normal;font-stretch:normal;font-size:17.6389px;font-family:Prototype;-inkscape-font-specification:Prototype;stroke-width:0.264583"
         x="43.385166"
         y="21.568151">Software</tspan></text><path
       d="m 14.824099,22.85227 q -0.619185,0 -1.068712,-0.427052 -0.449528,-0.42705 -0.449528,-1.015277 V 9.2945998 q 0,-0.5882272 0.449528,-1.0152787 0.449527,-0.4270514 1.068712,-0.4270514 h 16.96352 q 0.619185,0 1.068712,0.4270514 0.449528,0.4270515 0.449528,1.0152787 V 21.409941 q 0,0.588227 -0.449528,1.015277 -0.449527,0.427052 -1.068712,0.427052 z m 0,-1.134604 h 16.96352 q 0.121482,0 0.22271,-0.09615 0.101212,-0.09617 0.101212,-0.211575 V 11.05803 H 14.500179 v 10.351911 q 0,0.115408 0.101212,0.211575 0.101232,0.09615 0.22271,0.09615 z m 3.744905,-1.944256 -0.831975,-0.780753 2.710533,-2.600008 -2.736849,-2.60001 0.858291,-0.790353 3.568827,3.390363 z m 5.192331,0.186558 V 18.82539 h 5.404856 v 1.134578 z"
       id="path1"
       style="fill:#ffffff;fill-opacity:1;stroke-width:0.0256496" /></g></svg>
