<?xml version="1.0" encoding="UTF-8" standalone="no"?>
<svg
   height="24"
   viewBox="0 -960 960 960"
   width="24"
   version="1.1"
   id="svg1"
   sodipodi:docname="password_FILL0_wght400_GRAD0_opsz24.svg"
   inkscape:version="1.3.2 (091e20e, 2023-11-25)"
   xmlns:inkscape="http://www.inkscape.org/namespaces/inkscape"
   xmlns:sodipodi="http://sodipodi.sourceforge.net/DTD/sodipodi-0.dtd"
   xmlns="http://www.w3.org/2000/svg"
   xmlns:svg="http://www.w3.org/2000/svg">
  <defs
     id="defs1" />
  <sodipodi:namedview
     id="namedview1"
     pagecolor="#000000"
     bordercolor="#000000"
     borderopacity="0.25"
     inkscape:showpageshadow="2"
     inkscape:pageopacity="0.0"
     inkscape:pagecheckerboard="0"
     inkscape:deskcolor="#d1d1d1"
     inkscape:zoom="32.75"
     inkscape:cx="12.610687"
     inkscape:cy="9.7251908"
     inkscape:window-width="1984"
     inkscape:window-height="1260"
     inkscape:window-x="254"
     inkscape:window-y="36"
     inkscape:window-maximized="0"
     inkscape:current-layer="svg1" />
  <path
     d="M80-200v-80h800v80H80Zm46-242-52-30 34-60H40v-60h68l-34-58 52-30 34 58 34-58 52 30-34 58h68v60h-68l34 60-52 30-34-60-34 60Zm320 0-52-30 34-60h-68v-60h68l-34-58 52-30 34 58 34-58 52 30-34 58h68v60h-68l34 60-52 30-34-60-34 60Zm320 0-52-30 34-60h-68v-60h68l-34-58 52-30 34 58 34-58 52 30-34 58h68v60h-68l34 60-52 30-34-60-34 60Z"
     id="path1"
     style="fill:#ffffff" />
</svg>
